<svg width="133" height="133" viewBox="0 0 133 133" fill="none" xmlns="http://www.w3.org/2000/svg">
<circle cx="66.4678" cy="66.468" r="45" transform="rotate(45 66.4678 66.468)" stroke="#F53F3F" stroke-width="4"/>
<path d="M66.153 32.897C75.0245 32.5488 83.9124 35.691 90.5786 42.3571C97.2447 49.0233 100.387 57.9112 100.039 66.7827M66.7822 100.039C57.9107 100.387 49.0228 97.2452 42.3567 90.579C35.6905 83.9129 32.5483 75.025 32.8965 66.1535" stroke="#F53F3F" stroke-width="2"/>
<path d="M88.0089 78.9384C88.1653 80.1791 88.2174 81.3156 88.1653 82.3478L86.7264 82.3478C86.8307 81.4094 86.8307 80.2625 86.6847 78.9071L88.0089 78.9384ZM84.9227 94.5362C84.3284 93.9419 83.6923 93.285 83.0042 92.5761C82.3056 91.8566 81.7843 91.2102 81.4507 90.668C81.1379 90.105 81.0023 89.469 81.0336 88.7913C81.0649 88.4681 81.0023 88.2387 80.8772 88.1136C80.6583 87.8946 79.7929 87.9885 78.2811 88.4159L78.2289 87.0084C79.6261 86.6747 80.6478 86.6122 81.2839 86.8103L84.2241 83.87L82.8061 82.4521L83.7445 81.5137L86.1113 83.8805L82.1597 87.8321C82.1805 87.9363 82.1805 88.0406 82.1701 88.1553C82.1492 88.6766 82.2118 89.1562 82.3473 89.5628C82.5246 90.032 82.9208 90.595 83.5464 91.2623C84.1511 91.8879 84.8705 92.6282 85.7255 93.4831C86.1947 93.9523 86.6847 94.4215 87.1747 94.9116C87.6961 95.3912 88.0923 95.7457 88.3738 95.9855L87.133 96.7466L84.9227 94.5362ZM86.0279 92.8263L84.5577 91.3562L85.2876 90.1884C85.7151 90.6993 86.1425 91.1685 86.57 91.596C86.8515 91.8775 87.1435 91.8775 87.4146 91.6064L91.5538 87.4671L87.6335 83.5468L88.6032 82.5772L92.5235 86.4975L94.1291 84.8918L95.1196 85.8823L93.514 87.488L94.9945 88.9685L94.0249 89.9382L92.5443 88.4576L88.1653 92.8367C87.4563 93.5457 86.7368 93.5353 86.0279 92.8263ZM88.1861 85.6217C88.0714 87.0292 87.8942 88.1866 87.6752 89.0937L86.3302 88.8538C86.5909 87.8842 86.789 86.706 86.9349 85.3297L88.1861 85.6217Z" fill="#F53F3F"/>
<path d="M77.6245 68.5537C77.7809 69.8153 77.8226 70.9622 77.7601 71.984L76.3734 71.9736C76.4776 71.0352 76.4568 69.8883 76.3004 68.5224L77.6245 68.5537ZM74.2777 83.8909C73.7042 83.3174 73.0891 82.6814 72.4322 82.0037C71.7649 81.3156 71.2749 80.7004 70.9412 80.1583C70.6493 79.6161 70.5346 79.0009 70.5763 78.3336C70.6076 78.0104 70.5659 77.8019 70.4408 77.6768C70.2218 77.4578 69.3773 77.5517 67.9072 77.9583L67.855 76.5507C69.2209 76.2275 70.2218 76.165 70.8474 76.3735L73.798 73.4228L72.4009 72.0257L73.3184 71.1082L75.6435 73.4333L71.7023 77.3744C71.7128 77.4683 71.7128 77.5725 71.7023 77.6872C71.6606 78.2085 71.7023 78.6673 71.8275 79.0635C71.9943 79.5223 72.3592 80.0748 72.9535 80.7109C73.5374 81.3156 74.2255 82.0246 75.0388 82.8378C75.5497 83.3487 76.0814 83.8596 76.6132 84.3705C77.1449 84.8814 77.5724 85.2672 77.8748 85.5278L76.6549 86.2681L74.2777 83.8909ZM80.7837 73.7773L78.7714 71.765L79.5951 70.9414L85.3192 76.6654L84.6206 77.364C83.4946 77.2806 82.4102 77.0721 81.3467 76.7593C81.3467 76.801 81.3572 76.8323 81.3572 76.874L83.4529 78.9697L78.8236 83.599C78.2084 84.2141 77.5515 84.1828 76.8738 83.5051L76.071 82.7023L76.6861 81.6701L77.3847 82.4521C77.6141 82.6814 77.8539 82.6919 78.0833 82.4625L78.615 81.9307L77.1136 80.4293L75.4037 82.1393L74.4966 81.2322L76.2065 79.5223L74.7364 78.0521L73.0056 79.7829L72.0673 78.8445L77.6975 73.2143L80.0956 75.6124C79.9809 75.0389 79.8349 74.4133 79.6368 73.7565L80.7837 73.7773ZM81.2112 75.6854C81.8681 75.9043 82.5249 76.0607 83.1713 76.165L80.8358 73.8295C80.9818 74.4759 81.1174 75.0911 81.2112 75.6854ZM76.2691 76.5195L75.5393 77.2493L77.0094 78.7194L77.7392 77.9896L76.2691 76.5195ZM78.6463 78.8967L77.9165 79.6265L79.4179 81.1279L80.1477 80.3981L78.6463 78.8967ZM80.961 79.5848L81.6908 78.855L80.1894 77.3536L79.4596 78.0834L80.961 79.5848ZM78.5525 77.1763L79.2823 76.4465L77.8122 74.9764L77.0824 75.7062L78.5525 77.1763Z" fill="#F53F3F"/>
<path d="M66.1455 57.8247L75.1122 66.7914L74.1425 67.761L70.7748 64.3933C70.1909 64.6018 69.607 64.7895 69.0232 64.9355L61.9749 71.9837L60.9532 70.9619L66.5834 65.3317C64.5085 65.4881 62.2982 65.2795 59.9522 64.6852L60.1608 63.163C63.737 64.1535 66.9066 64.1952 69.6592 63.2777L65.1758 58.7943L66.1455 57.8247ZM69.6175 66.9686C69.8677 69.0539 69.9303 70.9723 69.8156 72.6927L68.2516 72.6927C68.4497 71.1183 68.4393 69.2103 68.2203 66.9477L69.6175 66.9686Z" fill="#F53F3F"/>
<path d="M54.5413 54.2071L53.603 55.1455C53.1755 54.9683 52.7584 54.7806 52.3518 54.6033L49.5888 57.3663C48.9007 58.0545 48.223 58.0649 47.5765 57.4185L46.6799 56.5218L47.441 55.3436C47.6599 55.646 47.8893 55.9171 48.1396 56.1673C48.3794 56.4071 48.6296 56.4071 48.8798 56.1569L51.0694 53.9673C50.6315 53.7379 50.204 53.4981 49.7974 53.2583L50.5168 52.0802C51.0068 52.4034 51.5073 52.7162 52.0286 53.0081L54.3641 50.6726L53.2693 49.5778L54.2181 48.629L55.3129 49.7238L57.1584 47.8783L58.1176 48.8376L56.2721 50.683L57.2209 51.6318L56.2721 52.5806L55.3233 51.6318L53.2902 53.665C53.6968 53.8631 54.1243 54.0403 54.5413 54.2071ZM56.4181 55.1038L52.1329 59.389C52.6959 59.7018 53.2485 59.9625 53.8011 60.1606L53.0712 61.2449C52.0286 60.807 50.913 60.2127 49.7244 59.4829L50.3917 58.3151C50.767 58.5028 51.1111 58.4507 51.403 58.1587L59.3583 50.2034L60.3384 51.1835L57.3773 54.1446L58.7119 55.4791L57.7527 56.4384L56.4181 55.1038ZM54.5622 64.279L53.6447 63.3615C52.967 62.6838 52.9982 61.9852 53.7177 61.2658L62.1005 52.883L63.0805 53.8631L60.1194 56.8241C60.8806 57.1891 61.6938 57.481 62.5488 57.6687L62.3194 59.045C61.1204 58.68 60.0569 58.263 59.1394 57.8042L54.9167 62.0269C54.6665 62.2771 54.656 62.5169 54.8854 62.7463L55.3129 63.1738C55.5006 63.3615 55.7195 63.4136 55.9593 63.3406C56.2304 63.2781 56.8247 62.8089 57.7527 61.9435L58.3574 63.1321C57.0749 64.2477 56.2096 64.8212 55.7717 64.842C55.3755 64.8629 54.9688 64.6856 54.5622 64.279Z" fill="#F53F3F"/>
<path d="M41.9873 44.1352L41.0176 45.1048L43.1133 47.2005L44.083 46.2309L41.9873 44.1352ZM42.2062 48.1076L40.1105 46.0119L39.5475 46.575L38.5778 45.6053L43.7806 40.4025L46.8459 43.4679L47.753 42.5608L48.7331 43.5409L47.826 44.448L50.9226 47.5446L45.7512 52.7161L44.7815 51.7464L45.3133 51.2147L43.1863 49.0877L41.1219 51.1521L40.1418 50.172L42.2062 48.1076ZM44.0934 48.1806L46.2204 50.3076L47.19 49.3379L45.063 47.211L44.0934 48.1806ZM48.0554 48.4725L49.0355 47.4925L46.9085 45.3655L45.9284 46.3456L48.0554 48.4725ZM45.9284 44.3854L43.8327 42.2897L42.8526 43.2698L44.9483 45.3655L45.9284 44.3854ZM53.9671 46.1058L51.9966 48.0763L51.0373 47.1171L52.1008 46.0536L45.136 39.0888L44.0204 40.2044L43.0612 39.2452L45.0839 37.2225L48.9833 41.122C49.1189 40.7987 49.2336 40.4964 49.3274 40.194L50.5473 41.0803C50.3909 41.4035 50.2137 41.7684 50.0051 42.1437L53.9671 46.1058Z" fill="#F53F3F"/>
</svg>
