<svg width="134" height="133" viewBox="0 0 134 133" fill="none" xmlns="http://www.w3.org/2000/svg">
<g id="Group 5123">
<g id="Group 5122">
<g id="Group 5121">
<circle id="Ellipse 78" cx="67" cy="66.468" r="45" transform="rotate(45 67 66.468)" stroke="#00B42A" stroke-width="4"/>
<path id="Ellipse 79" d="M66.6853 32.897C75.5567 32.5488 84.4446 35.691 91.1108 42.3571C97.777 49.0233 100.919 57.9112 100.571 66.7827M67.3144 100.039C58.443 100.387 49.5551 97.2452 42.8889 90.579C36.2227 83.9129 33.0806 75.025 33.4288 66.1535" stroke="#00B42A" stroke-width="2"/>
</g>
</g>
<g id="&#229;&#174;&#161;&#230;&#137;&#185;&#233;&#128;&#154;&#232;&#191;&#135;">
<path id="Vector" d="M82.361 73.7305C82.5136 74.9408 82.5644 76.0493 82.5136 77.0562H81.1101C81.2118 76.1409 81.2118 75.0221 81.0694 73.7L82.361 73.7305ZM79.3506 88.9453C78.7709 88.3655 78.1505 87.7248 77.4793 87.0332C76.7979 86.3315 76.2893 85.7009 75.9639 85.1721C75.6588 84.6229 75.5266 84.0025 75.5571 83.3414C75.5876 83.0262 75.5266 82.8024 75.4045 82.6804C75.1909 82.4668 74.3468 82.5583 72.8721 82.9753L72.8213 81.6023C74.1841 81.2769 75.1808 81.2158 75.8012 81.4091L78.6692 78.5411L77.286 77.1579L78.2014 76.2426L80.51 78.5512L76.6555 82.4058C76.6758 82.5075 76.6758 82.6092 76.6656 82.721C76.6453 83.2296 76.7063 83.6974 76.8385 84.094C77.0114 84.5517 77.3979 85.1009 78.0081 85.7518C78.598 86.362 79.2997 87.0841 80.1337 87.9181C80.5914 88.3757 81.0694 88.8334 81.5474 89.3114C82.0559 89.7792 82.4424 90.125 82.717 90.3589L81.5067 91.1014L79.3506 88.9453ZM80.4286 87.2773L78.9946 85.8433L79.7066 84.7042C80.1235 85.2026 80.5405 85.6603 80.9575 86.0772C81.2321 86.3518 81.5169 86.3518 81.7813 86.0874L85.8189 82.0498L81.9949 78.2258L82.9407 77.2799L86.7647 81.104L88.331 79.5377L89.2971 80.5039L87.7309 82.0701L89.1751 83.5143L88.2293 84.4602L86.7851 83.016L82.5136 87.2875C81.822 87.9791 81.1202 87.9689 80.4286 87.2773ZM82.5339 80.2497C82.422 81.6227 82.2491 82.7516 82.0356 83.6364L80.7236 83.4025C80.9778 82.4566 81.1711 81.3074 81.3135 79.9649L82.5339 80.2497Z" fill="#00B42A"/>
<path id="Vector_2" d="M72.2307 63.6006C72.3832 64.8312 72.4239 65.9499 72.3629 66.9466L71.0103 66.9364C71.112 66.0211 71.0916 64.9024 70.9391 63.57L72.2307 63.6006ZM68.966 78.561C68.4067 78.0017 67.8066 77.3813 67.1659 76.7202C66.515 76.049 66.037 75.4489 65.7115 74.9201C65.4268 74.3912 65.3149 73.7912 65.3556 73.1403C65.3861 72.825 65.3454 72.6216 65.2234 72.4996C65.0098 72.286 64.186 72.3775 62.752 72.7742L62.7011 71.4012C64.0334 71.0859 65.0098 71.0249 65.62 71.2283L68.4982 68.3501L67.1354 66.9873L68.0304 66.0923L70.2983 68.3603L66.454 72.2046C66.4641 72.2962 66.4641 72.3979 66.454 72.5097C66.4133 73.0182 66.454 73.4657 66.576 73.8522C66.7387 74.2997 67.0947 74.8387 67.6744 75.4591C68.2439 76.049 68.9152 76.7406 69.7085 77.5338C70.2068 78.0322 70.7255 78.5305 71.2442 79.0289C71.7629 79.5272 72.1798 79.9035 72.4748 80.1578L71.2848 80.8799L68.966 78.561ZM75.3123 68.6959L73.3494 66.733L74.1529 65.9296L79.7364 71.513L79.0549 72.1944C77.9566 72.1131 76.8988 71.9097 75.8615 71.6046C75.8615 71.6453 75.8716 71.6758 75.8716 71.7164L77.9159 73.7607L73.4003 78.2763C72.8002 78.8763 72.1595 78.8458 71.4984 78.1847L70.7153 77.4016L71.3154 76.3948L71.9968 77.1575C72.2205 77.3813 72.4544 77.3915 72.6782 77.1677L73.1969 76.649L71.7323 75.1845L70.0644 76.8524L69.1796 75.9676L70.8475 74.2997L69.4135 72.8657L67.7252 74.554L66.8099 73.6386L72.3019 68.1467L74.641 70.4858C74.5292 69.9265 74.3868 69.3163 74.1935 68.6755L75.3123 68.6959ZM75.7293 70.557C76.37 70.7706 77.0107 70.9232 77.6413 71.0249L75.3631 68.7467C75.5055 69.3773 75.6377 69.9773 75.7293 70.557ZM70.9085 71.3707L70.1966 72.0826L71.6306 73.5166L72.3426 72.8047L70.9085 71.3707ZM73.2274 73.6895L72.5155 74.4014L73.98 75.8659L74.6919 75.154L73.2274 73.6895ZM75.4852 74.3607L76.1971 73.6488L74.7326 72.1843L74.0207 72.8962L75.4852 74.3607ZM73.1358 72.0114L73.8478 71.2995L72.4138 69.8655L71.7018 70.5774L73.1358 72.0114Z" fill="#00B42A"/>
<path id="Vector_3" d="M59.8843 59.7765L58.9689 60.6918C58.5519 60.5189 58.1451 60.3359 57.7485 60.163L55.0534 62.8581C54.3821 63.5293 53.7211 63.5395 53.0905 62.9089L52.2159 62.0343L52.9583 60.8851C53.1719 61.18 53.3956 61.4444 53.6397 61.6885C53.8736 61.9224 54.1177 61.9224 54.3618 61.6783L56.4975 59.5426C56.0704 59.3188 55.6534 59.0849 55.2568 58.851L55.9585 57.7018C56.4365 58.017 56.9247 58.3221 57.4332 58.6069L59.7114 56.3288L58.6435 55.2609L59.569 54.3354L60.6369 55.4033L62.437 53.6031L63.3727 54.5388L61.5725 56.3389L62.498 57.2644L61.5725 58.1899L60.647 57.2644L58.6638 59.2476C59.0605 59.4409 59.4774 59.6138 59.8843 59.7765ZM61.7149 60.6511L57.5349 64.8311C58.0841 65.1362 58.6231 65.3905 59.1622 65.5837L58.4502 66.6414C57.4332 66.2143 56.345 65.6346 55.1856 64.9227L55.8365 63.7836C56.2026 63.9667 56.5382 63.9158 56.823 63.631L64.5829 55.8711L65.5389 56.8271L62.6506 59.7155L63.9524 61.0173L63.0167 61.9529L61.7149 60.6511ZM59.9046 69.601L59.0096 68.706C58.3485 68.0449 58.3791 67.3635 59.0808 66.6618L67.2577 58.4849L68.2137 59.4409L65.3254 62.3292C66.0678 62.6852 66.8611 62.97 67.695 63.153L67.4713 64.4955C66.3017 64.1395 65.2643 63.7327 64.3693 63.2852L60.2504 67.4042C60.0063 67.6483 59.9961 67.8822 60.2199 68.106L60.6369 68.5229C60.8199 68.706 61.0335 68.7569 61.2674 68.6857C61.5318 68.6246 62.1115 68.167 63.0167 67.3228L63.6066 68.4823C62.3556 69.5705 61.5115 70.1298 61.0843 70.1502C60.6979 70.1705 60.3012 69.9976 59.9046 69.601Z" fill="#00B42A"/>
<path id="Vector_4" d="M47.6397 49.9525L46.6938 50.8984L48.7381 52.9426L49.6839 51.9968L47.6397 49.9525ZM47.8532 53.8274L45.809 51.7832L45.2598 52.3324L44.314 51.3865L49.389 46.3116L52.379 49.3016L53.2638 48.4168L54.2198 49.3728L53.335 50.2576L56.3556 53.2782L51.3111 58.3227L50.3653 57.3768L50.884 56.8581L48.8093 54.7834L46.7955 56.7971L45.8395 55.8411L47.8532 53.8274ZM49.6941 53.8986L51.7688 55.9733L52.7146 55.0275L50.6399 52.9528L49.6941 53.8986ZM53.5588 54.1834L54.5148 53.2274L52.44 51.1526L51.484 52.1086L53.5588 54.1834ZM51.484 50.1966L49.4398 48.1524L48.4838 49.1084L50.528 51.1526L51.484 50.1966ZM59.3253 51.8747L57.4031 53.7969L56.4675 52.8612L57.5048 51.8239L50.7111 45.0301L49.6229 46.1183L48.6872 45.1827L50.6602 43.2096L54.4639 47.0133C54.5961 46.698 54.708 46.4031 54.7996 46.1082L55.9895 46.9726C55.8369 47.2879 55.664 47.6439 55.4606 48.01L59.3253 51.8747Z" fill="#00B42A"/>
</g>
</g>
</svg>
