<?xml version="1.0" standalone="no"?><!DOCTYPE svg PUBLIC "-//W3C//DTD SVG 1.1//EN" "http://www.w3.org/Graphics/SVG/1.1/DTD/svg11.dtd"><svg t="1725504205704" class="icon" viewBox="0 0 1024 1024" version="1.1" xmlns="http://www.w3.org/2000/svg" p-id="7782" xmlns:xlink="http://www.w3.org/1999/xlink" width="200" height="200"><path d="M1024 634.311c0-34.133-25.6-59.734-59.733-59.733s-59.734 28.444-59.733 59.733c0 34.133 25.6 59.734 59.733 59.733 34.133 2.844 59.734-25.6 59.733-59.733zM722.489 634.311c0-34.133-25.6-59.734-59.733-59.733s-59.734 28.444-59.733 59.733c0 34.133 25.6 59.734 59.733 59.733 34.133 2.844 59.734-25.6 59.733-59.733zM420.978 634.311c0-34.133-25.6-59.734-59.733-59.733s-59.734 28.444-59.733 59.733c0 34.133 25.6 59.734 59.733 59.733 34.133 2.844 59.734-25.6 59.733-59.733 0-31.289 0 0 0 0zM119.467 634.311c0-34.133-25.6-59.734-59.733-59.733-34.133 0-59.734 28.444-59.733 59.733 0 34.133 25.6 59.734 59.733 59.733 34.133 2.844 59.734-25.6 59.733-59.733 0-31.289 0 0 0 0zM1024 372.622c0-31.289-25.6-59.734-59.733-59.733s-59.734 28.444-59.733 59.733c0 34.133 25.6 59.734 59.733 59.733 34.133 2.844 59.734-25.6 59.733-59.733zM722.489 372.622c0-34.133-25.6-59.734-59.733-59.733s-59.734 28.444-59.733 59.733c0 34.133 25.6 59.734 59.733 59.733 34.133 2.844 59.734-25.6 59.733-59.733zM420.978 372.622c0-34.133-25.6-59.734-59.733-59.733s-59.734 28.444-59.733 59.733c0 34.133 25.6 59.734 59.733 59.733 34.133 2.844 59.734-25.6 59.733-59.733zM119.467 372.622c0-34.133-25.6-59.734-59.733-59.733-34.133 0-59.734 28.444-59.733 59.733 0 34.133 25.6 59.734 59.733 59.733 34.133 2.844 59.734-25.6 59.733-59.733z" fill="#333333" p-id="7783"></path></svg>