<svg width="14" height="14" viewBox="0 0 14 14" fill="none" xmlns="http://www.w3.org/2000/svg">
<g id="Frame">
<path id="Vector" d="M6.87354 0.873535C3.55954 0.873535 0.873535 3.55954 0.873535 6.87354C0.873535 10.1875 3.55954 12.8735 6.87354 12.8735C10.1875 12.8735 12.8735 10.1875 12.8735 6.87354C12.8735 3.55954 10.1875 0.873535 6.87354 0.873535ZM8.99449 7.93401C9.28773 8.22725 9.28773 8.70125 8.99449 8.99449C8.70125 9.28773 8.22725 9.28773 7.93401 8.99449L6.87354 7.93401L5.81306 8.99449C5.51982 9.28773 5.04582 9.28773 4.75258 8.99449C4.45934 8.70125 4.45934 8.22725 4.75258 7.93401L5.81306 6.87354L4.75258 5.81306C4.45934 5.51982 4.45934 5.04582 4.75258 4.75258C5.04582 4.45934 5.51982 4.45934 5.81306 4.75258L6.87354 5.81306L7.93401 4.75258C8.22725 4.45934 8.70125 4.45934 8.99449 4.75258C9.28773 5.04582 9.28773 5.51982 8.99449 5.81306L7.93401 6.87354L8.99449 7.93401Z" fill="#F53F3F"/>
</g>
</svg>
