<svg width="12" height="12" viewBox="0 0 12 12" fill="none" xmlns="http://www.w3.org/2000/svg">
<path id="Vector" d="M6 0C2.67263 0 0 2.67263 0 6C0 9.32738 2.67263 12 6 12C9.32738 12 12 9.32738 12 6C12 2.67263 9.32738 0 6 0ZM9.65475 4.2L5.29087 8.5635C5.18175 8.67263 5.07262 8.72738 4.90912 8.72738C4.74563 8.72738 4.6365 8.67263 4.52738 8.5635L2.34562 6.38175C2.12738 6.1635 2.12738 5.8365 2.34562 5.61825C2.5635 5.4 2.89088 5.4 3.10913 5.61825L4.90912 7.41825L8.89087 3.4365C9.10913 3.21825 9.4365 3.21825 9.65475 3.4365C9.87263 3.65437 9.87263 3.98175 9.65475 4.2Z" fill="#00B42A"/>
</svg>
