<?xml version="1.0" standalone="no"?><!DOCTYPE svg PUBLIC "-//W3C//DTD SVG 1.1//EN" "http://www.w3.org/Graphics/SVG/1.1/DTD/svg11.dtd"><svg t="1726143029898" class="icon" viewBox="0 0 1024 1024" version="1.1" xmlns="http://www.w3.org/2000/svg" p-id="10948" xmlns:xlink="http://www.w3.org/1999/xlink" width="200" height="200"><path d="M864 224a64 64 0 0 1 64 64v480a64 64 0 0 1-64 64H192a64 64 0 0 1-64-64V288a64 64 0 0 1 64-64h672z m0 64H192v480h0.608a208.032 208.032 0 0 1 108.704-167.136 144 144 0 1 1 197.376 0 208 208 0 0 1 108.704 167.168L864 768V288zM400 640a144 144 0 0 0-143.136 128h286.272a144 144 0 0 0-143.136-128zM832 560v64h-128v-64h128zM400 416a80 80 0 1 0 0 160 80 80 0 0 0 0-160z m424.768 16v64H640v-64h184.768z" fill="#333333" p-id="10949"></path></svg>