<?xml version="1.0" standalone="no"?><!DOCTYPE svg PUBLIC "-//W3C//DTD SVG 1.1//EN" "http://www.w3.org/Graphics/SVG/1.1/DTD/svg11.dtd"><svg t="1726142831640" class="icon" viewBox="0 0 1024 1024" version="1.1" xmlns="http://www.w3.org/2000/svg" p-id="6866" xmlns:xlink="http://www.w3.org/1999/xlink" width="200" height="200"><path d="M361.2 338.2v285.5H290V470.6c0-22.1-0.5-35.4-1.6-39.9s-4-7.8-8.7-10.1-15.4-3.4-31.8-3.4h-7.1v-33.3c34.4-7.4 60.6-22.7 78.5-45.7h41.9zM542.4 575v48.7H385.7V583c46.4-75.9 74-122.9 82.8-141 8.8-18 13.1-32.1 13.1-42.2 0-7.8-1.3-13.5-4-17.4-2.7-3.8-6.7-5.7-12.1-5.7s-9.4 2.1-12.1 6.3c-2.7 4.2-4 12.6-4 25.2v27.2h-63.8V425c0-16 0.8-28.6 2.5-37.8 1.6-9.2 5.7-18.3 12.2-27.2 6.5-8.9 14.9-15.7 25.2-20.3 10.3-4.6 22.7-6.9 37.2-6.9 28.3 0 49.8 7 64.3 21.1 14.5 14 21.8 31.8 21.8 53.3 0 16.3-4.1 33.6-12.3 51.8-8.2 18.2-32.2 56.9-72.2 116h78.1zM704 461.9c10.8 3.6 18.9 9.6 24.2 17.9s7.9 27.7 7.9 58.3c0 22.7-2.6 40.3-7.8 52.8s-14.1 22.1-26.8 28.6-29 9.8-48.8 9.8c-22.6 0-40.3-3.8-53.2-11.4S578.2 601 574.1 590c-4.1-11-6.1-30.1-6.1-57.2v-22.6h71.2v46.4c0 12.3 0.7 20.2 2.2 23.5s4.7 5 9.8 5c5.5 0 9.2-2.1 10.9-6.3 1.8-4.2 2.6-15.3 2.6-33.2V526c0-10.9-1.2-18.9-3.7-24s-6.1-8.4-10.9-10c-4.8-1.6-14.2-2.5-28-2.7v-41.4c16.9 0 27.4-0.6 31.4-1.9s6.9-4.1 8.6-8.5c1.8-4.3 2.6-11.2 2.6-20.5v-15.9c0-10-1-16.6-3.1-19.8-2.1-3.2-5.3-4.8-9.6-4.8-4.9 0-8.3 1.7-10.1 5-1.8 3.4-2.7 10.5-2.7 21.4v23.5H568v-24.3c0-27.3 6.2-45.7 18.7-55.3 12.5-9.6 32.3-14.4 59.4-14.4 34 0 57 6.6 69.1 19.9s18.2 31.7 18.2 55.3c0 16-2.2 27.5-6.5 34.6-4.4 7.4-12 13.8-22.9 19.7z" p-id="6867"></path><path d="M257 677h478v72H257z" p-id="6868"></path></svg>