<svg width="120" height="120" viewBox="0 0 120 120" fill="none" xmlns="http://www.w3.org/2000/svg">
<g clip-path="url(#clip0_64_7976)">
<path d="M15.6063 49.5503C12.1239 64.4029 16.1748 80.6624 27.7555 92.2431C39.3362 103.824 55.594 107.873 70.4483 104.392L74.3719 108.316C57.2232 113.402 37.8988 109.175 24.3614 95.6373C10.824 82.0999 6.59662 62.7755 11.6844 45.625L15.6063 49.5503ZM36.2408 83.7579L35.0545 87.0417L37.0435 89.7434L33.6053 89.7875L31.5501 92.6437L30.6117 89.387L27.355 88.4485L30.2112 86.3934L30.2536 82.9569L32.957 84.9441L36.2408 83.7579ZM27.4636 69.0478L25.064 71.5085L25.6308 74.9807L22.6643 73.3413L19.6996 74.9824L20.2647 71.5085L17.8651 69.0478L21.1811 68.5421L22.6643 65.3821L24.1476 68.5421L27.4636 69.0478ZM50.9509 92.535L51.4566 95.8511L54.6165 97.3343L51.4566 98.8175L50.9509 102.134L48.4901 99.734L45.018 100.301L46.6573 97.3343L45.0163 94.3696L48.4901 94.9347L50.9509 92.535ZM50.8151 84.7557L57.1248 91.0654C49.8715 90.4053 43.0805 87.2182 37.9378 82.0608C32.7812 76.919 29.5942 70.1294 28.9333 62.8773L35.2412 69.1852C36.5242 72.6438 38.5522 75.8869 41.332 78.6667C44.016 81.3577 47.2513 83.435 50.8151 84.7557ZM110.911 80.3638C111.811 81.2639 112.317 82.4848 112.317 83.7579C112.317 85.0309 111.811 86.2518 110.911 87.152L87.1525 110.911C86.2523 111.811 85.0314 112.317 83.7584 112.317C82.4853 112.317 81.2644 111.811 80.3642 110.911L9.08789 39.6344C8.18772 38.7342 7.68201 37.5133 7.68201 36.2403C7.68201 34.9673 8.18773 33.7464 9.0879 32.8462L32.8467 9.0874C33.7469 8.18723 34.9678 7.68151 36.2408 7.68151C37.5138 7.68151 38.7347 8.18722 39.6349 9.0874L110.911 80.3638ZM107.517 83.7579L36.2408 12.4815L12.482 36.2403L83.7584 107.517L107.517 83.7579ZM82.0613 37.9374C87.4223 43.2984 90.4227 50.1239 91.0676 57.126L84.7596 50.818C83.4383 47.2527 81.3598 44.0161 78.6672 41.3315C75.9825 38.6389 72.746 36.5603 69.1807 35.239L62.8744 28.9328C69.8764 29.5743 76.7003 32.5764 82.0613 37.9374ZM95.6378 24.3609C109.177 37.9 113.403 57.2227 108.315 74.3731L104.395 70.4529C107.875 55.5986 103.824 39.3357 92.2436 27.755C80.6629 16.1743 64.4017 12.1251 49.5474 15.6058L45.6255 11.6839C62.776 6.59612 82.0986 10.8218 95.6378 24.3609ZM101.286 49.5316L98.8859 51.9924L99.4527 55.4645L96.4863 53.8252L93.5215 55.4662L94.0866 51.9924L91.687 49.5316L95.0031 49.0259L96.4863 45.866L97.9695 49.0259L101.286 49.5316ZM70.467 18.7131L70.9727 22.0291L74.1327 23.5124L70.9727 24.9956L70.467 28.3117L68.0063 25.912L64.5341 26.4788L66.1735 23.5124L64.5324 20.5476L68.0063 21.1127L70.467 18.7131ZM90.5466 29.4521L89.3603 32.7359L91.3493 35.4376L87.9111 35.4817L85.8559 38.3379L84.9175 35.0812L81.6608 34.1427L84.5169 32.0876L84.5594 28.6511L87.2628 30.6383L90.5466 29.4521Z" fill="#FF706B"/>
<path d="M39.4393 22.9316L56.4664 39.9588L54.6251 41.8001L48.2301 35.405C47.1213 35.801 46.0126 36.1574 44.9038 36.4345L31.5197 49.8187L29.5794 47.8784L40.2709 37.1869C36.3309 37.4839 32.1335 37.0879 27.6787 35.9594L28.0747 33.0687C34.8657 34.9496 40.8846 35.0288 46.1116 33.2865L37.598 24.7729L39.4393 22.9316ZM46.0324 40.2954C46.5075 44.2552 46.6263 47.8982 46.4086 51.165L43.4387 51.165C43.8149 48.1754 43.7951 44.5521 43.3793 40.2558L46.0324 40.2954ZM61.238 43.3048C61.535 45.7005 61.6142 47.8784 61.4954 49.8187L58.8621 49.7989C59.0601 48.017 59.0205 45.8391 58.7235 43.2454L61.238 43.3048ZM54.8825 72.4291C53.7936 71.3402 52.6254 70.1324 51.3781 68.8455C50.111 67.5388 49.1804 66.3706 48.5468 65.3411C47.9925 64.3115 47.7747 63.1434 47.8539 61.8763C47.9133 61.2625 47.8341 60.8665 47.5965 60.6289C47.1807 60.2131 45.577 60.3913 42.7853 61.1635L42.6863 58.4906C45.28 57.8769 47.1807 57.7581 48.3686 58.154L53.9718 52.5509L51.3187 49.8979L53.061 48.1556L57.4762 52.5707L49.9922 60.0547C50.012 60.2329 50.012 60.4309 49.9922 60.6487C49.913 61.6387 49.9922 62.5098 50.2298 63.2622C50.5465 64.1333 51.2395 65.1827 52.368 66.3904C53.4768 67.5388 54.7835 68.8851 56.3278 70.4294C57.298 71.3996 58.3077 72.3697 59.3175 73.3399C60.3272 74.31 61.139 75.0426 61.7132 75.5376L59.3967 76.9433L54.8825 72.4291ZM67.2371 53.2241L63.4159 49.4029L64.98 47.8388L75.8496 58.7084L74.5231 60.0349C72.3848 59.8766 70.3257 59.4806 68.3062 58.8866C68.3062 58.9658 68.326 59.0252 68.326 59.1044L72.3056 63.084L63.5149 71.8747C62.3467 73.0429 61.0994 72.9835 59.8125 71.6966L58.2879 70.172L59.4561 68.2119L60.7826 69.6969C61.2182 70.1324 61.6736 70.1522 62.1091 69.7167L63.1189 68.7069L60.2678 65.8558L57.0208 69.1029L55.2983 67.3804L58.5453 64.1333L55.7537 61.3417L52.467 64.6283L50.6851 62.8464L61.3766 52.1549L65.9304 56.7087C65.7126 55.6198 65.4354 54.4318 65.0592 53.1845L67.2371 53.2241ZM68.0488 56.8473C69.2962 57.2631 70.5435 57.5601 71.7711 57.7581L67.3361 53.3231C67.6133 54.5506 67.8707 55.7188 68.0488 56.8473ZM58.6641 58.4312L57.2782 59.8172L60.0699 62.6088L61.4558 61.2229L58.6641 58.4312ZM63.1783 62.9454L61.7924 64.3313L64.6434 67.1824L66.0293 65.7965L63.1783 62.9454ZM67.5737 64.2521L68.9596 62.8662L66.1085 60.0151L64.7226 61.4011L67.5737 64.2521ZM63.0001 59.6786L64.386 58.2926L61.5944 55.501L60.2084 56.8869L63.0001 59.6786ZM80.9578 63.0246C81.2548 65.3807 81.3538 67.5388 81.2548 69.4989H78.5225C78.7205 67.717 78.7205 65.5391 78.4433 62.9652L80.9578 63.0246ZM75.0973 92.6439C73.9687 91.5153 72.761 90.268 71.4543 88.9217C70.1277 87.5555 69.1378 86.328 68.5042 85.2985C67.9103 84.2293 67.6529 83.0216 67.7123 81.7346C67.7717 81.1209 67.6529 80.6853 67.4153 80.4477C66.9995 80.0319 65.3562 80.2101 62.4853 81.0219L62.3863 78.349C65.0394 77.7154 66.9797 77.5966 68.1874 77.9728L73.7708 72.3895L71.0781 69.6969L72.86 67.9149L77.3544 72.4093L69.8506 79.9131C69.8902 80.1111 69.8902 80.3091 69.8704 80.5269C69.8308 81.5168 69.9495 82.4276 70.2069 83.1998C70.5435 84.0907 71.2959 85.1599 72.4838 86.427C73.6322 87.6149 74.9983 89.0207 76.6218 90.6442C77.5128 91.5351 78.4433 92.4261 79.3739 93.3566C80.3638 94.2674 81.1162 94.9406 81.6508 95.3959L79.2947 96.8413L75.0973 92.6439ZM77.196 89.3968L74.4043 86.6052L75.7903 84.3877C76.602 85.3579 77.4138 86.2488 78.2255 87.0606C78.7601 87.5951 79.3145 87.5951 79.8292 87.0804L87.6894 79.2202L80.245 71.7757L82.0863 69.9344L89.5308 77.3789L92.5798 74.3298L94.4607 76.2107L91.4117 79.2598L94.2231 82.0712L92.3818 83.9125L89.5703 81.1011L81.2548 89.4166C79.9084 90.763 78.5423 90.7432 77.196 89.3968ZM81.2944 75.7157C81.0766 78.3886 80.74 80.5863 80.3242 82.3088L77.7701 81.8534C78.2651 80.0121 78.6413 77.7748 78.9185 75.1614L81.2944 75.7157Z" fill="#FF706B"/>
</g>
<defs>
<clipPath id="clip0_64_7976">
<rect width="120" height="120" fill="white"/>
</clipPath>
</defs>
</svg>
