<svg width="120" height="120" viewBox="0 0 120 120" fill="none" xmlns="http://www.w3.org/2000/svg">
<g clip-path="url(#clip0_50_8950)">
<path d="M15.6063 49.5503C12.1239 64.4029 16.1748 80.6624 27.7555 92.2431C39.3362 103.824 55.594 107.873 70.4483 104.392L74.3719 108.316C57.2232 113.402 37.8988 109.175 24.3614 95.6373C10.824 82.0999 6.59662 62.7755 11.6844 45.625L15.6063 49.5503ZM36.2408 83.7579L35.0545 87.0417L37.0435 89.7434L33.6053 89.7875L31.5501 92.6437L30.6117 89.387L27.355 88.4485L30.2112 86.3934L30.2536 82.9569L32.957 84.9441L36.2408 83.7579ZM27.4636 69.0478L25.064 71.5085L25.6308 74.9807L22.6643 73.3413L19.6996 74.9824L20.2647 71.5085L17.8651 69.0478L21.1811 68.5421L22.6643 65.3821L24.1476 68.5421L27.4636 69.0478ZM50.9509 92.535L51.4566 95.8511L54.6165 97.3343L51.4566 98.8175L50.9509 102.134L48.4901 99.734L45.018 100.301L46.6573 97.3343L45.0163 94.3696L48.4901 94.9347L50.9509 92.535ZM50.8151 84.7557L57.1248 91.0654C49.8715 90.4053 43.0805 87.2182 37.9378 82.0608C32.7812 76.919 29.5942 70.1294 28.9333 62.8773L35.2412 69.1852C36.5242 72.6438 38.5522 75.8869 41.332 78.6667C44.016 81.3577 47.2513 83.435 50.8151 84.7557ZM110.911 80.3638C111.811 81.2639 112.317 82.4848 112.317 83.7579C112.317 85.0309 111.811 86.2518 110.911 87.152L87.1525 110.911C86.2523 111.811 85.0314 112.317 83.7584 112.317C82.4853 112.317 81.2644 111.811 80.3642 110.911L9.08789 39.6344C8.18772 38.7342 7.68201 37.5133 7.68201 36.2403C7.68201 34.9673 8.18773 33.7464 9.0879 32.8462L32.8467 9.0874C33.7469 8.18723 34.9678 7.68151 36.2408 7.68151C37.5138 7.68151 38.7347 8.18722 39.6349 9.0874L110.911 80.3638ZM107.517 83.7579L36.2408 12.4815L12.482 36.2403L83.7584 107.517L107.517 83.7579ZM82.0613 37.9374C87.4223 43.2984 90.4227 50.1239 91.0676 57.126L84.7596 50.818C83.4383 47.2527 81.3598 44.0161 78.6672 41.3315C75.9825 38.6389 72.746 36.5603 69.1807 35.239L62.8744 28.9328C69.8764 29.5743 76.7003 32.5764 82.0613 37.9374ZM95.6378 24.3609C109.177 37.9 113.403 57.2227 108.315 74.3731L104.395 70.4529C107.875 55.5986 103.824 39.3357 92.2436 27.755C80.6629 16.1743 64.4017 12.1251 49.5474 15.6058L45.6255 11.6839C62.776 6.59612 82.0986 10.8218 95.6378 24.3609ZM101.286 49.5316L98.8859 51.9924L99.4527 55.4645L96.4863 53.8252L93.5215 55.4662L94.0866 51.9924L91.687 49.5316L95.0031 49.0259L96.4863 45.866L97.9695 49.0259L101.286 49.5316ZM70.467 18.7131L70.9727 22.0291L74.1327 23.5124L70.9727 24.9956L70.467 28.3117L68.0063 25.912L64.5341 26.4788L66.1735 23.5124L64.5324 20.5476L68.0063 21.1127L70.467 18.7131ZM90.5466 29.4521L89.3603 32.7359L91.3493 35.4376L87.9111 35.4817L85.8559 38.3379L84.9175 35.0812L81.6608 34.1427L84.5169 32.0876L84.5594 28.6511L87.2628 30.6383L90.5466 29.4521Z" fill="#FF7D00"/>
<path d="M43.7743 25.1689L44.6455 27.5448C41.4776 28.7327 37.795 29.0099 33.6768 28.3764L34.944 26.0401C38.1118 26.4361 41.0618 26.1391 43.7743 25.1689ZM39.9135 30.4553L40.7649 32.8113C39.2799 33.3855 37.7356 33.7815 36.1517 34.0191L26.0938 44.077L24.2921 42.2753L32.2909 34.2765C31.004 34.2567 29.717 34.1577 28.4103 33.9993L29.6576 31.6828C33.3204 32.059 36.7457 31.6432 39.9135 30.4553ZM51.0801 32.6727L52.8818 34.4744L50.8821 36.4741L55.1785 40.7705L53.456 42.493L49.1596 38.1967L47.1203 40.236L52.2285 45.3441L50.4862 47.0864L38.6068 35.207L40.3491 33.4647L45.3186 38.4342L47.3579 36.395L43.1011 32.1382L44.8237 30.4157L49.0804 34.6724L51.0801 32.6727ZM36.6863 37.2463L44.2099 44.7699L45.5166 43.4632L47.3777 45.3243L46.071 46.631L48.2291 48.7891L46.467 50.5512L44.3089 48.3931L39.6363 53.0657C38.1712 54.5308 36.7259 54.5506 35.3201 53.1449L32.5087 50.3334L33.8748 48.0962C34.7064 49.0861 35.5181 49.9771 36.3299 50.7888C36.9437 51.4026 37.597 51.3828 38.2306 50.7492L42.4478 46.532L34.9242 39.0084L36.6863 37.2463ZM37.0031 42.0773C36.9833 44.275 36.8645 46.0569 36.6467 47.4626L34.152 47.027C34.4094 45.5025 34.5678 43.681 34.6074 41.5427L37.0031 42.0773ZM70.0674 51.6204L71.6513 53.6795C71.0375 53.9765 70.4039 54.214 69.81 54.412L75.2943 59.8964L73.6906 61.5001C71.9285 62.1138 70.008 62.292 67.9291 61.995C68.5428 63.48 69.3942 65.0441 70.4633 66.7072L67.9687 67.7368C66.5629 65.4203 65.5532 63.2622 64.979 61.3021C62.9001 60.6487 60.7024 59.5994 58.386 58.1936L59.3561 55.798C61.138 56.9463 62.8011 57.8175 64.3851 58.451C64.2465 57.2433 64.2861 56.1345 64.4841 55.105C63.8109 55.0654 63.1377 55.0258 62.4646 54.907L62.7813 52.4519C65.474 52.9271 67.9093 52.6697 70.0674 51.6204ZM66.8995 55.0654C66.6421 56.3523 66.7015 57.7581 67.0579 59.3024C68.6814 59.6588 70.1664 59.7578 71.5325 59.54L67.0381 55.0456C66.9787 55.0258 66.9391 55.0258 66.8995 55.0654ZM63.5931 45.1461L64.5039 47.6408C62.5833 48.6505 60.6034 49.4821 58.584 50.0761L45.1998 63.4602L43.3981 61.6585L53.9312 51.1254C52.6641 51.2838 51.3969 51.4026 50.1298 51.4818L51.4563 49.0465C55.6141 48.6109 59.6729 47.324 63.5931 45.1461ZM61.2766 50.0365L62.9991 51.759L51.7929 62.9652L50.0704 61.2427L61.2766 50.0365ZM64.4247 62.8068L64.9196 65.0045C63.5535 64.8659 62.2864 64.6283 61.0984 64.2323C59.9303 63.8166 58.4058 63.1236 56.5051 62.1732L57.099 59.7974C58.3662 60.6289 59.6531 61.3219 60.9994 61.8763C62.128 62.292 63.2763 62.6088 64.4247 62.8068ZM64.8602 66.2122L65.1374 68.3901C61.633 68.6871 57.891 67.717 53.9114 65.4401L54.7825 63.1038C58.4256 65.3213 61.7914 66.3508 64.8602 66.2122ZM49.6348 68.2119L50.5456 65.7173C53.4164 67.4002 55.9309 68.5287 58.0494 69.1029C60.2273 69.6969 62.425 69.875 64.7216 69.6375L65.0582 71.9539C62.7813 72.4093 60.2669 72.2707 57.4752 71.4986C54.7034 70.7066 52.0701 69.6177 49.6348 68.2119ZM85.9264 76.7849C85.4512 77.0225 84.9958 77.2403 84.5602 77.4383C83.0357 80.1507 81.9468 82.7444 81.2736 85.2391C84.0851 84.3283 86.7777 82.6256 89.3318 80.1903L85.9264 76.7849ZM91.1533 82.0118C87.7479 85.1401 84.2632 87.1596 80.6598 88.0703C80.2242 90.961 80.343 93.6536 81.0162 96.1879L78.3631 96.7027C77.69 94.0892 77.5712 91.3569 78.0266 88.5257C75.1161 88.8227 72.1463 88.4267 69.0972 87.3576L69.4932 84.6649C72.6214 85.8924 75.6309 86.2884 78.5611 85.8924C79.1749 83.5363 80.1055 81.1011 81.3528 78.6262C80.4024 78.8638 79.4719 79.0816 78.5611 79.2004L78.8779 76.5869C82.2437 75.9929 85.8472 74.2506 89.6882 71.36L91.2127 73.5181C90.1831 74.2308 89.1932 74.904 88.223 75.5178L94.3211 81.6158L92.5392 83.3978L91.1533 82.0118ZM67.5331 78.8242C69.6318 79.8537 71.9087 80.7843 74.3637 81.6554L72.8986 83.6353C69.7902 82.5464 66.5035 81.1209 63.0981 79.3786L64.1673 77.2007C64.781 77.4581 65.4146 77.2997 66.0482 76.6661L73.2154 69.4989L77.5514 73.8348L81.8082 69.5781L76.5812 64.3511L78.3829 62.5494L85.4512 69.6177L77.6504 77.4185L73.2946 73.0627L67.5331 78.8242Z" fill="#FF7D00"/>
</g>
<defs>
<clipPath id="clip0_50_8950">
<rect width="120" height="120" fill="white"/>
</clipPath>
</defs>
</svg>
