<svg width="120" height="120" viewBox="0 0 120 120" fill="none" xmlns="http://www.w3.org/2000/svg">
<g clip-path="url(#clip0_64_7742)">
<path d="M15.6063 49.5503C12.1239 64.4029 16.1748 80.6624 27.7555 92.2431C39.3362 103.824 55.594 107.873 70.4483 104.392L74.3719 108.316C57.2232 113.402 37.8988 109.175 24.3614 95.6373C10.824 82.0999 6.59662 62.7755 11.6844 45.625L15.6063 49.5503ZM36.2408 83.7579L35.0545 87.0417L37.0435 89.7434L33.6053 89.7875L31.5501 92.6437L30.6117 89.387L27.355 88.4485L30.2112 86.3934L30.2536 82.9569L32.957 84.9441L36.2408 83.7579ZM27.4636 69.0478L25.064 71.5085L25.6308 74.9807L22.6643 73.3413L19.6996 74.9824L20.2647 71.5085L17.8651 69.0478L21.1811 68.5421L22.6643 65.3821L24.1476 68.5421L27.4636 69.0478ZM50.9509 92.535L51.4566 95.8511L54.6165 97.3343L51.4566 98.8175L50.9509 102.134L48.4901 99.734L45.018 100.301L46.6573 97.3343L45.0163 94.3696L48.4901 94.9347L50.9509 92.535ZM50.8151 84.7557L57.1248 91.0654C49.8715 90.4053 43.0805 87.2182 37.9378 82.0608C32.7812 76.919 29.5942 70.1294 28.9333 62.8773L35.2412 69.1852C36.5242 72.6438 38.5522 75.8869 41.332 78.6667C44.016 81.3577 47.2513 83.435 50.8151 84.7557ZM110.911 80.3638C111.811 81.2639 112.317 82.4848 112.317 83.7579C112.317 85.0309 111.811 86.2518 110.911 87.152L87.1525 110.911C86.2523 111.811 85.0314 112.317 83.7584 112.317C82.4853 112.317 81.2644 111.811 80.3642 110.911L9.08789 39.6344C8.18772 38.7342 7.68201 37.5133 7.68201 36.2403C7.68201 34.9673 8.18773 33.7464 9.0879 32.8462L32.8467 9.0874C33.7469 8.18723 34.9678 7.68151 36.2408 7.68151C37.5138 7.68151 38.7347 8.18722 39.6349 9.0874L110.911 80.3638ZM107.517 83.7579L36.2408 12.4815L12.482 36.2403L83.7584 107.517L107.517 83.7579ZM82.0613 37.9374C87.4223 43.2984 90.4227 50.1239 91.0676 57.126L84.7596 50.818C83.4383 47.2527 81.3598 44.0161 78.6672 41.3315C75.9825 38.6389 72.746 36.5603 69.1807 35.239L62.8744 28.9328C69.8764 29.5743 76.7003 32.5764 82.0613 37.9374ZM95.6378 24.3609C109.177 37.9 113.403 57.2227 108.315 74.3731L104.395 70.4529C107.875 55.5986 103.824 39.3357 92.2436 27.755C80.6629 16.1743 64.4017 12.1251 49.5474 15.6058L45.6255 11.6839C62.776 6.59612 82.0986 10.8218 95.6378 24.3609ZM101.286 49.5316L98.8859 51.9924L99.4527 55.4645L96.4863 53.8252L93.5215 55.4662L94.0866 51.9924L91.687 49.5316L95.0031 49.0259L96.4863 45.866L97.9695 49.0259L101.286 49.5316ZM70.467 18.7131L70.9727 22.0291L74.1327 23.5124L70.9727 24.9956L70.467 28.3117L68.0063 25.912L64.5341 26.4788L66.1735 23.5124L64.5324 20.5476L68.0063 21.1127L70.467 18.7131ZM90.5466 29.4521L89.3603 32.7359L91.3493 35.4376L87.9111 35.4817L85.8559 38.3379L84.9175 35.0812L81.6608 34.1427L84.5169 32.0876L84.5594 28.6511L87.2628 30.6383L90.5466 29.4521Z" fill="#1FC240"/>
<path d="M51.3385 33.4053C51.6355 35.801 51.7147 37.9789 51.5959 39.9192L48.9626 39.8994C49.1606 38.1175 49.121 35.9396 48.824 33.3459L51.3385 33.4053ZM44.983 62.5296C43.8941 61.4407 42.7259 60.2329 41.4786 58.946C40.2115 57.6393 39.2809 56.4711 38.6473 55.4416C38.093 54.412 37.8752 53.2439 37.9544 51.9768C38.0138 51.363 37.9346 50.967 37.697 50.7294C37.2812 50.3136 35.6775 50.4918 32.8858 51.264L32.7868 48.5911C35.3805 47.9774 37.2812 47.8586 38.4692 48.2545L44.0723 42.6514L41.4192 39.9984L43.1615 38.2561L47.5767 42.6712L40.0927 50.1552C40.1125 50.3334 40.1125 50.5314 40.0927 50.7492C40.0135 51.7392 40.0927 52.6103 40.3303 53.3627C40.647 54.2338 41.34 55.2832 42.4686 56.4909C43.5773 57.6393 44.884 58.9856 46.4283 60.5299C47.3985 61.5001 48.4082 62.4702 49.418 63.4404C50.4277 64.4105 51.2395 65.1431 51.8137 65.6381L49.4972 67.0438L44.983 62.5296ZM57.3376 43.3246L53.5164 39.5034L55.0805 37.9393L65.9502 48.8089L64.6236 50.1355C62.4853 49.9771 60.4262 49.5811 58.4067 48.9871C58.4067 49.0663 58.4265 49.1257 58.4265 49.2049L62.4061 53.1845L53.6154 61.9752C52.4472 63.1434 51.1999 63.084 49.913 61.7971L48.3884 60.2725L49.5566 58.3124L50.8831 59.7974C51.3187 60.2329 51.7741 60.2527 52.2097 59.8172L53.2194 58.8074L50.3683 55.9564L47.1213 59.2034L45.3988 57.4809L48.6458 54.2338L45.8542 51.4422L42.5675 54.7288L40.7856 52.9469L51.4771 42.2555L56.0309 46.8092C55.8131 45.7203 55.5359 44.5323 55.1597 43.285L57.3376 43.3246ZM58.1494 46.9478C59.3967 47.3636 60.644 47.6606 61.8716 47.8586L57.4366 43.4236C57.7138 44.6511 57.9712 45.8193 58.1494 46.9478ZM48.7646 48.5317L47.3787 49.9177L50.1704 52.7093L51.5563 51.3234L48.7646 48.5317ZM53.2788 53.0459L51.8929 54.4318L54.7439 57.2829L56.1299 55.897L53.2788 53.0459ZM57.6742 54.3526L59.0601 52.9667L56.2091 50.1157L54.8231 51.5016L57.6742 54.3526ZM53.1006 49.7791L54.4865 48.3931L51.6949 45.6015L50.309 46.9874L53.1006 49.7791ZM71.0583 53.1251C71.3553 55.4812 71.4543 57.6393 71.3553 59.5994H68.623C68.821 57.8175 68.821 55.6396 68.5438 53.0657L71.0583 53.1251ZM65.1978 82.7444C64.0692 81.6158 62.8615 80.3685 61.5548 79.0222C60.2282 77.656 59.2383 76.4285 58.6047 75.399C58.0108 74.3298 57.7534 73.1221 57.8128 71.8351C57.8722 71.2214 57.7534 70.7858 57.5158 70.5482C57.1 70.1324 55.4567 70.3106 52.5858 71.1224L52.4868 68.4495C55.1399 67.8159 57.0802 67.6972 58.2879 68.0733L63.8713 62.49L61.1786 59.7974L62.9605 58.0154L67.4549 62.5098L59.9511 70.0136C59.9907 70.2116 59.9907 70.4096 59.9709 70.6274C59.9313 71.6174 60.0501 72.5281 60.3074 73.3003C60.644 74.1912 61.3964 75.2604 62.5843 76.5275C63.7327 77.7154 65.0988 79.1212 66.7223 80.7447C67.6133 81.6356 68.5438 82.5266 69.4744 83.4572C70.4643 84.3679 71.2167 85.0411 71.7513 85.4964L69.3952 86.9418L65.1978 82.7444ZM67.2965 79.4974L64.5048 76.7057L65.8908 74.4882C66.7025 75.4584 67.5143 76.3493 68.326 77.1611C68.8606 77.6956 69.415 77.6956 69.9298 77.1809L77.7899 69.3207L70.3455 61.8763L72.1868 60.0349L79.6313 67.4794L82.6803 64.4303L84.5612 66.3112L81.5122 69.3603L84.3236 72.1717L82.4823 74.013L79.6709 71.2016L71.3553 79.5172C70.0089 80.8635 68.6428 80.8437 67.2965 79.4974ZM71.3949 65.8162C71.1771 68.4891 70.8405 70.6868 70.4247 72.4093L67.8707 71.9539C68.3656 70.1126 68.7418 67.8753 69.019 65.2619L71.3949 65.8162Z" fill="#1FC240"/>
</g>
<defs>
<clipPath id="clip0_64_7742">
<rect width="120" height="120" fill="white"/>
</clipPath>
</defs>
</svg>
