<svg width="120" height="120" viewBox="0 0 120 120" fill="none" xmlns="http://www.w3.org/2000/svg">
<g clip-path="url(#clip0_64_7285)">
<path d="M15.6063 49.5503C12.1239 64.4029 16.1748 80.6624 27.7555 92.2431C39.3362 103.824 55.594 107.873 70.4483 104.392L74.3719 108.316C57.2232 113.402 37.8988 109.175 24.3614 95.6373C10.824 82.0999 6.59662 62.7755 11.6844 45.625L15.6063 49.5503ZM36.2408 83.7579L35.0545 87.0417L37.0435 89.7434L33.6053 89.7875L31.5501 92.6437L30.6117 89.387L27.355 88.4485L30.2112 86.3934L30.2536 82.9569L32.957 84.9441L36.2408 83.7579ZM27.4636 69.0478L25.064 71.5085L25.6308 74.9807L22.6643 73.3413L19.6996 74.9824L20.2647 71.5085L17.8651 69.0478L21.1811 68.5421L22.6643 65.3821L24.1476 68.5421L27.4636 69.0478ZM50.9509 92.535L51.4566 95.8511L54.6165 97.3343L51.4566 98.8175L50.9509 102.134L48.4901 99.734L45.018 100.301L46.6573 97.3343L45.0163 94.3696L48.4901 94.9347L50.9509 92.535ZM50.8151 84.7557L57.1248 91.0654C49.8715 90.4053 43.0805 87.2182 37.9378 82.0608C32.7812 76.919 29.5942 70.1294 28.9333 62.8773L35.2412 69.1852C36.5242 72.6438 38.5522 75.8869 41.332 78.6667C44.016 81.3577 47.2513 83.435 50.8151 84.7557ZM110.911 80.3638C111.811 81.2639 112.317 82.4848 112.317 83.7579C112.317 85.0309 111.811 86.2518 110.911 87.152L87.1525 110.911C86.2523 111.811 85.0314 112.317 83.7584 112.317C82.4853 112.317 81.2644 111.811 80.3642 110.911L9.08789 39.6344C8.18772 38.7342 7.68201 37.5133 7.68201 36.2403C7.68201 34.9673 8.18773 33.7464 9.0879 32.8462L32.8467 9.0874C33.7469 8.18723 34.9678 7.68151 36.2408 7.68151C37.5138 7.68151 38.7347 8.18722 39.6349 9.0874L110.911 80.3638ZM107.517 83.7579L36.2408 12.4815L12.482 36.2403L83.7584 107.517L107.517 83.7579ZM82.0613 37.9374C87.4223 43.2984 90.4227 50.1239 91.0676 57.126L84.7596 50.818C83.4383 47.2527 81.3598 44.0161 78.6672 41.3315C75.9825 38.6389 72.746 36.5603 69.1807 35.239L62.8744 28.9328C69.8764 29.5743 76.7003 32.5764 82.0613 37.9374ZM95.6378 24.3609C109.177 37.9 113.403 57.2227 108.315 74.3731L104.395 70.4529C107.875 55.5986 103.824 39.3357 92.2436 27.755C80.6629 16.1743 64.4017 12.1251 49.5474 15.6058L45.6255 11.6839C62.776 6.59612 82.0986 10.8218 95.6378 24.3609ZM101.286 49.5316L98.8859 51.9924L99.4527 55.4645L96.4863 53.8252L93.5215 55.4662L94.0866 51.9924L91.687 49.5316L95.0031 49.0259L96.4863 45.866L97.9695 49.0259L101.286 49.5316ZM70.467 18.7131L70.9727 22.0291L74.1327 23.5124L70.9727 24.9956L70.467 28.3117L68.0063 25.912L64.5341 26.4788L66.1735 23.5124L64.5324 20.5476L68.0063 21.1127L70.467 18.7131ZM90.5466 29.4521L89.3603 32.7359L91.3493 35.4376L87.9111 35.4817L85.8559 38.3379L84.9175 35.0812L81.6608 34.1427L84.5169 32.0876L84.5594 28.6511L87.2628 30.6383L90.5466 29.4521Z" fill="#165DFF"/>
<path d="M43.5179 25.1887L45.0424 27.3468C43.9733 28.0992 42.9437 28.7723 41.934 29.3861L46.2898 33.7419L44.6068 35.4248C40.7262 38.3551 36.9248 40.2162 33.163 41.0477C32.965 42.0377 32.9254 42.9088 33.0442 43.6612C33.46 46.1757 35.2419 49.0663 38.4098 52.3133C39.5383 53.4419 40.746 54.5308 42.0132 55.6396L39.6769 57.2235L37.4792 55.0258C33.3214 50.868 31.0247 47.1854 30.5892 43.978C30.4902 43.1662 30.4902 42.3346 30.609 41.4635C27.9757 41.7209 25.382 41.4635 22.828 40.7309L23.6001 37.9393C26.1542 38.6718 28.7281 38.8698 31.3019 38.5134C31.8563 36.8107 32.6681 34.9694 33.757 32.9697C32.4899 33.2865 31.2425 33.5043 30.0744 33.6033L30.3912 30.7126C34.5886 30.2771 38.9641 28.4358 43.5179 25.1887ZM37.0634 31.8412C35.7171 34.1379 34.7271 36.1574 34.054 37.9393C36.905 37.1473 39.7561 35.7218 42.6467 33.7023L39.6175 30.673C38.7463 31.1086 37.895 31.4848 37.0634 31.8412ZM51.2989 33.1677L53.1798 35.0486L48.1707 40.0578C48.6062 42.79 48.9428 45.7005 49.1606 48.8089L46.3492 49.3633C46.3888 46.3934 46.3492 43.9384 46.1908 42.0377L38.5088 49.7197L36.6278 47.8388L51.2989 33.1677ZM66.1481 49.1653L76.1664 59.1836L66.7025 68.6475L62.6437 64.5887L60.6638 66.5686L64.98 70.8848L63.2377 72.6271L58.9215 68.3109L56.8624 70.37L61.8716 75.3792L60.0699 77.1809L48.0915 65.2025L49.8932 63.4008L55.0013 68.5089L57.0604 66.4498L52.7244 62.1138L54.4667 60.3715L58.8027 64.7075L60.7826 62.7276L56.6842 58.6292L66.1481 49.1653ZM66.5639 65.1827L68.821 62.9256L66.5639 60.6685L64.3068 62.9256L66.5639 65.1827ZM62.4457 61.0645L64.7028 58.8074L62.4061 56.5107L60.149 58.7678L62.4457 61.0645ZM64.0297 54.8872L66.3263 57.1839L68.5834 54.9268L66.2867 52.6301L64.0297 54.8872ZM70.4445 56.7879L68.1874 59.045L70.4445 61.3021L72.7016 59.045L70.4445 56.7879ZM52.8036 48.8485L54.7637 50.8086L59.0007 46.5716L56.7436 44.3145L58.5255 42.5326L64.9206 48.9277L63.1387 50.7096L60.9014 48.4723L56.6644 52.7093L58.6641 54.709L56.8624 56.5107L54.8627 54.511L50.9029 58.4708C51.8137 58.9064 52.7046 59.3222 53.6154 59.6786L51.7939 61.5001C49.2596 60.3913 46.7055 59.0648 44.1317 57.4809L45.478 55.2238C46.4481 55.9168 47.4381 56.5503 48.428 57.1443L52.962 52.6103L51.0019 50.6502L52.8036 48.8485ZM87.5707 69.0831L89.511 71.0234L86.0857 74.4486L93.1342 81.4971L83.5713 91.06L81.6904 89.1791L82.8189 88.0505L77.6514 82.883L71.0187 89.5156L69.0784 87.5753L75.7111 80.9427L70.5633 75.7949L69.4348 76.9235L67.5539 75.0426L77.1168 65.4797L84.1454 72.5083L87.5707 69.0831ZM72.4046 73.9536L77.5524 79.1014L82.3041 74.3496L77.1564 69.2019L72.4046 73.9536ZM79.4927 81.0417L84.6602 86.2092L89.412 81.4575L84.2444 76.2899L79.4927 81.0417Z" fill="#165DFF"/>
</g>
<defs>
<clipPath id="clip0_64_7285">
<rect width="120" height="120" fill="white"/>
</clipPath>
</defs>
</svg>
